<?xml version="1.0" encoding="iso-8859-1"?>
<!-- Uploaded to: SVG Repo, www.svgrepo.com, Generator: SVG Repo Mixer Tools -->
<svg height="800px" width="800px" version="1.1" id="Layer_1" xmlns="http://www.w3.org/2000/svg" xmlns:xlink="http://www.w3.org/1999/xlink" 
	 viewBox="0 0 512 512" xml:space="preserve">
<polygon style="fill:#8AD5DD;" points="0,182.024 256,333.272 0,484.568 "/>
<polygon style="fill:#6CB8BC;" points="0,182.024 46.184,147.112 46.184,209.296 "/>
<polygon style="fill:#8AD5DD;" points="512,182.024 256,333.272 512,484.568 "/>
<polygon style="fill:#6CB8BC;" points="512,182.024 465.816,147.112 465.816,209.296 "/>
<polygon style="fill:#9ADEE2;" points="256,333.272 256,333.272 256,333.272 256,333.272 256,333.272 0,484.568 256,484.568 
	256,484.568 512,484.568 "/>
<polygon style="fill:#FFFFFF;" points="50.176,207.016 50.176,31.432 461.824,31.432 461.824,207.016 256,328.624 "/>
<path style="fill:#E0E0E0;" d="M457.816,35.432v169.296L256,323.984L54.184,204.728V35.432H256H457.816 M465.816,27.432H256H46.184
	v181.864L256,333.272l0,0l0,0l0,0l0,0l209.816-123.976L465.816,27.432L465.816,27.432z"/>
<path style="fill:#2D2D2D;" d="M250.272,108.824H249.8l-29,13.8l-5.84-26.664l40.224-18.712h29.472V229.28h-34.384V108.824z"/>
</svg>